<svg xmlns="http://www.w3.org/2000/svg" xmlns:xlink="http://www.w3.org/1999/xlink" viewBox="0 0 1000 1000" width="1000px" height="1000px"><g id="surface240436"><path style=" stroke:none;fill-rule:nonzero;fill:rgb(50.588238%,54.11765%,56.862748%);fill-opacity:1;" d="M 500 40 C 485.703125 40 471.40625 43.59375 458.671875 50.78125 L 121.796875 240.078125 C 96.015625 254.53125 80 281.640625 80 310.703125 L 80 689.296875 C 80 718.359375 96.015625 745.46875 121.796875 759.921875 L 458.671875 949.21875 C 471.40625 956.40625 485.703125 960 500 960 C 514.296875 960 528.59375 956.40625 541.328125 949.21875 L 878.203125 760 C 903.984375 745.46875 920 718.359375 920 689.296875 L 920 310.703125 C 920 281.640625 903.984375 254.53125 878.203125 240.078125 L 541.328125 50.78125 C 528.59375 43.59375 514.296875 40 500 40 Z M 500 260 C 575.625 260 645.546875 295.078125 690.859375 354.765625 L 603.203125 405.546875 C 576.875 376.71875 539.453125 360 500 360 C 422.8125 360 360 422.8125 360 500 C 360 577.1875 422.8125 640 500 640 C 539.453125 640 576.875 623.28125 603.203125 594.453125 L 690.859375 645.234375 C 645.546875 704.921875 575.625 740 500 740 C 367.65625 740 260 632.34375 260 500 C 260 367.65625 367.65625 260 500 260 Z M 700 400 L 740 400 L 740 440 L 780 440 L 780 400 L 820 400 L 820 440 L 860 440 L 860 480 L 820 480 L 820 520 L 860 520 L 860 560 L 820 560 L 820 600 L 780 600 L 780 560 L 740 560 L 740 600 L 700 600 L 700 560 L 660 560 L 660 520 L 700 520 L 700 480 L 660 480 L 660 440 L 700 440 Z M 740 480 L 740 520 L 780 520 L 780 480 Z M 740 480 "></path></g></svg>